<?xml version="1.0" encoding="UTF-8"?>
<svg enable-background="new 0 0 566.93 566.93" viewBox="0 0 566.93 566.93" xmlns="http://www.w3.org/2000/svg">
 <defs>
  <radialGradient id="b" cx="313.69" cy="301.87" r="26.575" gradientTransform="matrix(2.2026 0 0 1.6047 -406.74 -247.98)" gradientUnits="userSpaceOnUse">
   <stop stop-color="#fff" offset="0"/>
   <stop stop-color="#f29192" offset=".9818"/>
  </radialGradient>
  <radialGradient id="a" cx="302.36" cy="131.41" r="26.575" gradientTransform="matrix(2.756 0 0 -2.0573 -549.86 762.35)" gradientUnits="userSpaceOnUse">
   <stop stop-color="#fff" offset="0"/>
   <stop stop-color="#f29192" offset=".9818"/>
  </radialGradient>
 </defs>
 <path d="m283.43 91.412c-149.6 0-270.88 106.03-270.88 236.82s121.28 236.82 270.88 236.82 270.88-106.03 270.88-236.82-121.27-236.82-270.88-236.82z" fill="#a3a2a2"/>
 <path d="m340.24 260.34c0 24.279-24.444 43.966-54.598 43.966s-54.598-19.688-54.598-43.966 24.444-43.963 54.598-43.963 54.598 19.685 54.598 43.963z" fill="url(#b)"/>
 <path d="m353.6 461.32c0-31.126-30.589-56.367-68.32-56.367s-68.317 25.241-68.317 56.367 30.589 56.365 68.317 56.365 68.32-25.236 68.32-56.365z" fill="url(#a)"/>
 <path d="m356.99 439.47c0 27.858-32.108 50.441-71.711 50.441-39.606 0-71.712-22.583-71.712-50.441 0-27.854 32.105-50.439 71.712-50.439 39.603-1e-3 71.711 22.584 71.711 50.439z" fill="#ce1417"/>
 <path d="m300.16 362.5c0 67.082-47.224 121.46-105.48 121.46s-105.48-54.375-105.48-121.46 47.227-121.46 105.48-121.46 105.48 54.379 105.48 121.46z" fill="#b0aeae"/>
 <path d="m360.61 181.17c8.295 16.707 4.718 34.824-7.979 40.468s-29.723-3.325-38.016-20.029c-8.301-16.708-4.729-34.823 7.969-40.466s29.725 3.321 38.026 20.027z" fill="#020203"/>
 <path d="m256.24 203.45c-9.799 15.962-27.582 23.497-39.718 16.835-12.136-6.666-14.029-25.007-4.234-40.969 9.798-15.962 27.578-23.5 39.712-16.836s14.035 25.007 4.24 40.97z" fill="#020203"/>
 <path d="m253.51 176.82a8.399 7.947 0 1 0 -16.798 0 8.399 7.947 0 1 0 16.798 0" fill="#fdfdfd"/>
 <path d="m341.7 174.84a8.399 7.945 0 1 0 -16.798 0 8.399 7.945 0 1 0 16.798 0" fill="#fdfdfd"/>
 <path d="m173.22 114.5-91.806 86.836c-52.417 49.581-53.749-41.727-55.149-97.344s-23.802-100.64-5.601-96.666 121.46 12.219 152.56 107.17z" fill="#bfbbbb"/>
 <path d="m392.96 110.52 91.805 86.837c52.417 49.58 53.748-41.728 55.15-97.344s23.8-100.64 5.599-96.667-121.46 12.219-152.55 107.17z" fill="#bfbbbb"/>
 <path d="m414.74 132.98 39.815 37.658c22.73 21.501 23.308-18.096 23.914-42.214s10.32-43.644 2.428-41.92-52.668 5.299-66.157 46.476z" fill="#fce6e7"/>
 <path d="m152.88 134.97-39.813 37.657c-22.731 21.5-23.308-18.096-23.916-42.213s-10.321-43.643-2.428-41.92 52.671 5.299 66.157 46.476z" fill="#fce6e7"/>
 <path d="m232.51 131.61s-41.151-9.737-41.151 38.923 7.221-38.923 41.151-38.923z" fill="#7c7c7c"/>
 <path d="m336.26 131.61s41.147-9.737 41.147 38.923-7.219-38.923-41.147-38.923z" fill="#7c7c7c"/>
 <path d="m396.63 392.5a3.664 3.465 0 1 0 -7.328 0 3.664 3.465 0 1 0 7.328 0" fill="#020203"/>
 <path d="m360.49 326.12a3.664 3.465 0 1 0 -7.328 0 3.664 3.465 0 1 0 7.328 0" fill="#020203"/>
 <path d="m418.41 333.05c0 1.913-1.641 3.463-3.667 3.463-2.02 0-3.661-1.55-3.661-3.463s1.642-3.467 3.661-3.467c2.027 0 3.667 1.554 3.667 3.467z" fill="#020203"/>
 <path d="m486.07 362.5c0 67.082-48.663 121.46-108.7 121.46s-108.7-54.375-108.7-121.46 48.667-121.46 108.7-121.46c60.035 0 108.7 54.379 108.7 121.46z" fill="#b0aeae"/>
 <path d="m176.082,322.382c-46.249-26.308-107.773-37.351-158.067-16.254-1.246.522-.104,1.146.76.783 49.552-20.786 110.253-9.49 155.768,16.398 .542.31 2.327-.479 1.539-.927z" fill="#7c7c7c"/>
 <path d="m230.343,324.684c-23.981-19.981-50.561-37.093-78.925-50.154-27.717-12.763-58.972-22.124-89.75-18.305-.965.12-1.578,1.31-.244,1.145 30.958-3.841 62.102,5.994 89.921,18.804 27.735,12.771 53.772,29.759 77.209,49.288 .555.461 2.361-.302 1.789-.778z" fill="#7c7c7c"/>
 <path d="m200.086,355.385c-19.336-10.927-41.802-14.68-63.66-16.573-23.8-2.063-47.718-1.318-71.573-1.301-.398,0-2.199.78-1.255.779 22.311-.017 44.624-.569 66.904.94 23.136,1.568 47.306,5.248 67.763,16.809 .484.274 2.056-.521 1.821-.654z" fill="#7c7c7c"/>
 <path d="m202.78 354.4a3.664 3.466 0 1 0 -7.328 0 3.664 3.466 0 1 0 7.328 0" fill="#020203"/>
 <path d="m233.82 326.12a3.664 3.465 0 1 0 -7.328 0 3.664 3.465 0 1 0 7.328 0" fill="#020203"/>
 <path d="m179.04 322.65a3.664 3.466 0 1 0 -7.328 0 3.664 3.466 0 1 0 7.328 0" fill="#020203"/>
 <path d="m381.589,320.536c45.489-25.877 106.062-36.903 155.549-16.144 .572.24 2.338-.593 1.539-.928-50.357-21.125-112.012-9.813-158.283,16.509-1.135.646.575.916 1.195.563z" fill="#7c7c7c"/>
 <path d="m327.636,322.667c23.41-19.506 49.332-36.237 76.949-49.138 27.675-12.928 58.967-22.569 89.801-18.744 .788.098 2.035-1.001.734-1.163-30.9-3.833-62.005,5.725-89.864,18.368-28.484,12.927-55.176,30.301-79.185,50.304-.871.727 1.052.8 1.565.373z" fill="#7c7c7c"/>
 <path d="m357.865,353.144c20.244-11.438 44.023-14.858 66.888-16.511 22.196-1.604 44.466-.951 66.696-.935 .398,0 2.2-.778 1.256-.779-23.94-.018-47.891-.645-71.781,1.308-22.133,1.808-44.983,5.822-64.535,16.87-.82.463 1.131.242 1.476.047z" fill="#7c7c7c"/>
 <path d="m353.52 351.81c0 1.915 1.642 3.466 3.669 3.466 2.022 0 3.659-1.551 3.659-3.466 0-1.913-1.637-3.466-3.659-3.466-2.027 0-3.669 1.553-3.669 3.466z" fill="#020203"/>
 <path d="m329.81 323.52a3.664 3.466 0 1 0 -7.328 0 3.664 3.466 0 1 0 7.328 0" fill="#020203"/>
 <path d="m377.26 320.06c0 1.916 1.641 3.466 3.669 3.466 2.022 0 3.659-1.55 3.659-3.466 0-1.913-1.637-3.466-3.659-3.466-2.029 0-3.669 1.553-3.669 3.466z" fill="#020203"/>
</svg>
