<?xml version="1.0" encoding="UTF-8"?>
<svg width="536.46" height="603.49" version="1.1" viewBox="0 0 536.45563 603.48646" xmlns="http://www.w3.org/2000/svg">
 <g transform="translate(1531.5 -52.742)">
  <g transform="matrix(.96234 0 0 .96234 -9.3869 8.0254)">
   <ellipse cx="-1252.9" cy="519.08" rx="135.72" ry="87.857" fill="#4d4d4d"/>
   <ellipse cx="-1252.9" cy="495.08" rx="135.72" ry="87.857" fill="#999"/>
   <ellipse transform="matrix(.96593 .25882 -.25882 .96593 0 0)" cx="-1036.7" cy="514.14" rx="92.143" ry="174.29" fill="#333"/>
   <ellipse transform="matrix(.96593 .25882 -.25882 .96593 0 0)" cx="-1036.7" cy="514.14" rx="74.016" ry="140" fill="#4d4d4d"/>
   <ellipse transform="matrix(-.70711 .70711 .70711 .70711 0 0)" cx="1158.4" cy="-793.71" rx="92.143" ry="174.29" fill="#333"/>
   <ellipse transform="matrix(-.70711 .70711 .70711 .70711 0 0)" cx="1158.4" cy="-793.71" rx="74.016" ry="140" fill="#4d4d4d"/>
   <circle cx="-1269.3" cy="329.65" r="156.43" fill="#333"/>
   <ellipse transform="matrix(.84169 -.53996 .46107 .88736 0 0)" cx="-1316.9" cy="-164.38" rx="66.307" ry="101.08" fill="#d40000"/>
   <ellipse transform="matrix(.96593 -.25882 .25882 .96593 0 0)" cx="-1349.4" cy="-91.675" rx="53.571" ry="78.571" fill="#e6e6e6"/>
   <ellipse transform="matrix(.96593 .25882 -.25882 .96593 0 0)" cx="-1094.4" cy="563.14" rx="53.571" ry="78.571" fill="#e6e6e6"/>
   <ellipse transform="matrix(.96593 -.25882 .25882 .96593 0 0)" cx="-1329.4" cy="-86.316" rx="35.716" ry="52.383"/>
   <ellipse transform="matrix(.96593 .25882 -.25882 .96593 0 0)" cx="-1114.4" cy="568.5" rx="35.716" ry="52.383"/>
   <ellipse transform="matrix(.91559 .40211 -.60457 .79655 0 0)" cx="-802.92" cy="950.1" rx="133.76" ry="154.01"/>
   <ellipse transform="matrix(.91559 -.40211 .60457 .79655 0 0)" cx="-1269.2" cy="-95.913" rx="133.76" ry="154.01"/>
   <rect x="-1268.4" y="349.67" width="7.0711" height="137.38" ry="3.0458" fill="#333"/>
   <ellipse cx="-1265.7" cy="313.08" rx="42.857" ry="43.571" fill="#999"/>
   <ellipse cx="-1172.9" cy="481.65" rx="8.5714" ry="8.7143" fill="#333"/>
   <ellipse cx="-1132.9" cy="481.65" rx="8.5714" ry="8.7143" fill="#333"/>
   <ellipse cx="-1152.9" cy="441.65" rx="8.5714" ry="8.7143" fill="#333"/>
   <ellipse cx="-1392.9" cy="481.65" rx="8.5714" ry="8.7143" fill="#333"/>
   <ellipse cx="-1352.9" cy="481.65" rx="8.5714" ry="8.7143" fill="#333"/>
   <ellipse cx="-1372.9" cy="441.65" rx="8.5714" ry="8.7143" fill="#333"/>
   <rect transform="matrix(.69992 .71422 -.68271 .73069 0 0)" x="-531.62" y="1175.4" width="69.96" height="1.9728" ry=".98639" fill="#4d4d4d"/>
   <rect transform="matrix(.79086 .612 -.57657 .81704 0 0)" x="-650.25" y="1074.7" width="69.96" height="1.9728" ry=".98639" fill="#4d4d4d"/>
   <rect transform="matrix(.84353 .53709 -.49942 .86636 0 0)" x="-780.22" y="991.88" width="69.96" height="1.9728" ry=".98639" fill="#4d4d4d"/>
   <rect transform="matrix(-.69992 .71422 .68271 .73069 0 0)" x="1317.3" y="-631.53" width="69.96" height="1.9728" ry=".98639" fill="#4d4d4d"/>
   <rect transform="matrix(-.79086 .612 .57657 .81704 0 0)" x="1417.2" y="-473.56" width="69.96" height="1.9728" ry=".98639" fill="#4d4d4d"/>
   <rect transform="matrix(-.84353 .53709 .49942 .86636 0 0)" x="1412" y="-366.84" width="69.96" height="1.9728" ry=".98639" fill="#4d4d4d"/>
   <ellipse transform="matrix(-.96593 -.25882 -.25882 .96593 0 0)" cx="1374.9" cy="631.58" rx="73.562" ry="139.14" fill="#333"/>
   <path d="m-1280.5 179.04c-3.5714 19.286 5 32.143 5 32.143l8.5714 8.5714 2.1429 13.571 12.143-25 0.7143-22.857-22.857-6.4286z" fill="#666" fill-rule="evenodd"/>
  </g>
 </g>
</svg>
